# xmcd
#
# Track frame offsets:
# 150
# 16892
# 28009
# 44743
# 70771
# 82740
# 95732
# 112864
# 130845
# 150810
# 179607
# 200018
# 226426
# 243512
# 262934
# 287006
# 299243
#
# Disc length: 4294 seconds
#
#
# Revision: 0
# Processed by: cddbd v1.5.1PL2 Copyright (c) Steve Scherf et al.
# Submitted via: FreeRIP 2.945 
#
DISCID=ed10c411
DTITLE=Various Artist - Bluesfest 2006 - Disc 2
DYEAR=2006
DGENRE=Various
TTITLE0=Michael Franti and Spearhead - Love'll Set Me Free
TTITLE1=The Donovan Frankenreiter Band - Free
TTITLE2=The Vasco Era - Turn To Blue
TTITLE3=Erykah Badu - Bag Lady (Album Version)
TTITLE4=Georgie Fame - Let The Sunshine In
TTITLE5=Los Lobos - La Bamba
TTITLE6=The Black Keys - Thickfreakness
TTITLE7=Buddy Guy - A Man Of Many Words
TTITLE8=The Robert Cray Band Featuring The Memphis Horns - Consequences (Album Version)
TTITLE9=Carus - When I Think Of You
TTITLE10=The Greencards - Time
TTITLE11=Daniel Lanois - For The Beauty Of Wynona
TTITLE12=Harry Manx - Afghani Raga
TTITLE13=The Boomtown Rats - I Don't Like Mondays (Edit)
TTITLE14=Public Enemy - Don't Believe The Hype
TTITLE15=Christine Anu - Redemption Song
TTITLE16=Yothu Yindi - Ghost Spirits
EXTD=
EXTT0=
EXTT1=
EXTT2=
EXTT3=
EXTT4=
EXTT5=
EXTT6=
EXTT7=
EXTT8=
EXTT9=
EXTT10=
EXTT11=
EXTT12=
EXTT13=
EXTT14=
EXTT15=
EXTT16=
PLAYORDER=
